<svg width="29" height="32" viewBox="0 0 29 32" fill="none" xmlns="http://www.w3.org/2000/svg">
<g clip-path="url(#clip0_41_97)">
<path d="M14.5 0C6.49263 0 0 7.16429 0 16C0 24.8357 6.49263 32 14.5 32C22.5074 32 29 24.8357 29 16C29 7.16429 22.5074 0 14.5 0ZM21.4684 12.0607C21.4781 12.2286 21.4781 12.4036 21.4781 12.575C21.4781 17.8179 17.8596 23.8571 11.2472 23.8571C9.20815 23.8571 7.31797 23.2036 5.72556 22.0786C6.01685 22.1143 6.2952 22.1286 6.59297 22.1286C8.276 22.1286 9.8231 21.5 11.0562 20.4357C9.47679 20.4 8.14978 19.2571 7.69665 17.6857C8.25011 17.775 8.74855 17.775 9.31819 17.6143C8.50492 17.432 7.77393 16.9446 7.24941 16.2349C6.72488 15.5253 6.43919 14.6372 6.44085 13.7214V13.6714C6.91663 13.9679 7.47656 14.15 8.06239 14.175C7.56991 13.8128 7.16604 13.3222 6.88657 12.7465C6.60709 12.1709 6.46067 11.528 6.46027 10.875C6.46027 10.1357 6.63505 9.46071 6.949 8.875C7.85169 10.1012 8.97812 11.1041 10.2551 11.8184C11.532 12.5328 12.9309 12.9427 14.3608 13.0214C13.8527 10.325 15.6781 8.14286 17.8725 8.14286C18.9083 8.14286 19.8404 8.62143 20.4974 9.39286C21.3098 9.225 22.0866 8.88929 22.7792 8.43929C22.5106 9.35714 21.9474 10.1321 21.1998 10.6214C21.9248 10.5357 22.6239 10.3143 23.2712 10.0036C22.7825 10.7964 22.1708 11.5 21.4684 12.0607Z" fill="black"/>
</g>
<defs>
<clipPath id="clip0_41_97">
<rect width="29" height="32" fill="white"/>
</clipPath>
</defs>
</svg>
