<svg width="29" height="29" viewBox="0 0 29 29" fill="none" xmlns="http://www.w3.org/2000/svg">
<g clip-path="url(#clip0_41_95)">
<path d="M14.4871 0.398103C6.48292 0.394866 0 6.87455 0 14.8722C0 21.1965 4.05547 26.5725 9.70335 28.5469C10.464 28.7378 10.3474 28.1973 10.3474 27.8283V25.32C5.95536 25.8346 5.77734 22.9281 5.48281 22.4426C4.88728 21.4263 3.47935 21.1674 3.90011 20.6819C4.90022 20.1673 5.91975 20.8114 7.10112 22.5559C7.95558 23.8214 9.62243 23.6078 10.4672 23.3974C10.6517 22.6368 11.0465 21.9571 11.5903 21.4296C7.03962 20.6139 5.14297 17.8369 5.14297 14.5356C5.14297 12.9335 5.67054 11.4608 6.70625 10.273C6.04598 8.31484 6.76775 6.63828 6.86484 6.38906C8.74531 6.22076 10.7002 7.73549 10.8523 7.85525C11.9204 7.56719 13.1406 7.41507 14.5065 7.41507C15.8788 7.41507 17.1022 7.57366 18.18 7.86496C18.5458 7.58661 20.3583 6.28549 22.106 6.44409C22.1999 6.6933 22.9055 8.33103 22.284 10.2633C23.3327 11.4544 23.8667 12.94 23.8667 14.5453C23.8667 17.8531 21.9571 20.6334 17.3935 21.436C17.7844 21.8205 18.0948 22.2789 18.3065 22.7846C18.5182 23.2903 18.6271 23.8331 18.6267 24.3814V28.0225C18.6526 28.3138 18.6267 28.6019 19.1122 28.6019C24.8442 26.6696 28.9709 21.2548 28.9709 14.8754C28.9709 6.87455 22.4847 0.398103 14.4871 0.398103Z" fill="black"/>
</g>
<defs>
<clipPath id="clip0_41_95">
<rect width="29" height="29" fill="white"/>
</clipPath>
</defs>
</svg>
