<svg width="21" height="21" viewBox="0 0 21 21" fill="none" xmlns="http://www.w3.org/2000/svg">
<path d="M10.5001 4.91133C10.152 4.91133 9.81814 5.04069 9.572 5.27095C9.32585 5.50121 9.18757 5.81351 9.18757 6.13915V19.6452C9.18757 19.9708 9.32585 20.2831 9.572 20.5134C9.81814 20.7436 10.152 20.873 10.5001 20.873C10.8482 20.873 11.182 20.7436 11.4281 20.5134C11.6743 20.2831 11.8126 19.9708 11.8126 19.6452V6.13915C11.8126 5.81351 11.6743 5.50121 11.4281 5.27095C11.182 5.04069 10.8482 4.91133 10.5001 4.91133Z" fill="white"/>
<path d="M19.6875 0C19.3394 0 19.0056 0.12936 18.7594 0.359621C18.5133 0.589882 18.375 0.902183 18.375 1.22782V19.6451C18.375 19.9708 18.5133 20.2831 18.7594 20.5133C19.0056 20.7436 19.3394 20.873 19.6875 20.873C20.0356 20.873 20.3695 20.7436 20.6156 20.5133C20.8617 20.2831 21 19.9708 21 19.6451V1.22782C21 0.902183 20.8617 0.589882 20.6156 0.359621C20.3695 0.12936 20.0356 0 19.6875 0Z" fill="white"/>
<path d="M1.3125 9.82259C0.964402 9.82259 0.630563 9.95195 0.384422 10.1822C0.138281 10.4125 0 10.7248 0 11.0504V19.6452C0 19.9708 0.138281 20.2831 0.384422 20.5134C0.630563 20.7436 0.964402 20.873 1.3125 20.873C1.66059 20.873 1.99443 20.7436 2.24058 20.5134C2.48672 20.2831 2.625 19.9708 2.625 19.6452V11.0504C2.625 10.7248 2.48672 10.4125 2.24058 10.1822C1.99443 9.95195 1.66059 9.82259 1.3125 9.82259Z" fill="white"/>
</svg>
