<svg width="33" height="18" viewBox="0 0 33 18" fill="none" xmlns="http://www.w3.org/2000/svg">
<path d="M22.8212 0H3.58541C2.58008 0.0534718 1.63921 0.4619 0.968411 1.13603C0.29761 1.81016 -0.0485769 2.69518 0.00550372 3.59768V14.1686C-0.0485769 15.0711 0.29761 15.9561 0.968411 16.6303C1.63921 17.3044 2.58008 17.7128 3.58541 17.7663H22.8212C23.8266 17.7128 24.7674 17.3044 25.4382 16.6303C26.109 15.9561 26.4552 15.0711 26.4011 14.1686V3.59768C26.4552 2.69518 26.109 1.81016 25.4382 1.13603C24.7674 0.4619 23.8266 0.0534718 22.8212 0Z" fill="white"/>
<path d="M31.3503 4.44157C30.9127 4.44157 30.4931 4.59756 30.1837 4.87521C29.8744 5.15286 29.7005 5.52944 29.7005 5.9221V11.8442C29.7005 12.2369 29.8744 12.6134 30.1837 12.8911C30.4931 13.1687 30.9127 13.3247 31.3503 13.3247C31.7878 13.3247 32.2074 13.1687 32.5168 12.8911C32.8262 12.6134 33 12.2369 33 11.8442V5.9221C33 5.52944 32.8262 5.15286 32.5168 4.87521C32.2074 4.59756 31.7878 4.44157 31.3503 4.44157Z" fill="white"/>
</svg>
