<svg width="21" height="19" viewBox="0 0 21 19" fill="none" xmlns="http://www.w3.org/2000/svg">
<path d="M20.7835 15.4952H18.6183V13.6506C18.6183 13.5492 18.5208 13.4662 18.4017 13.4662H17.1026C16.9835 13.4662 16.8861 13.5492 16.8861 13.6506V15.4952H14.7209C14.6018 15.4952 14.5043 15.5783 14.5043 15.6797V16.7865C14.5043 16.8879 14.6018 16.9709 14.7209 16.9709H16.8861V18.8155C16.8861 18.917 16.9835 19 17.1026 19H18.4017C18.5208 19 18.6183 18.917 18.6183 18.8155V16.9709H20.7835C20.9026 16.9709 21 16.8879 21 16.7865V15.6797C21 15.5783 20.9026 15.4952 20.7835 15.4952ZM6.75014 9.18669C6.72578 8.98609 6.71225 8.78318 6.71225 8.57797C6.71225 8.21135 6.75285 7.85396 6.82863 7.50579C6.84758 7.42278 6.79615 7.33747 6.70684 7.30288C6.33875 7.16223 6.00043 6.96855 5.70813 6.72414C5.3637 6.43962 5.09266 6.09707 4.91232 5.71832C4.73197 5.33958 4.64628 4.93297 4.6607 4.52444C4.68506 3.78429 5.0342 3.08104 5.64317 2.55071C6.31169 1.96735 7.21025 1.64916 8.16565 1.65838C9.02904 1.6653 9.86265 1.94891 10.4933 2.45156C10.7071 2.62219 10.8911 2.81126 11.0454 3.01417C11.0995 3.08565 11.2051 3.11562 11.2971 3.08795C11.7735 2.9473 12.2769 2.84815 12.7938 2.80204C12.9454 2.7882 13.032 2.64986 12.9643 2.53457C12.0847 1.05197 10.2876 0.0282101 8.20896 0.000541016C5.21013 -0.0386569 2.7093 2.05728 2.7093 4.61206C2.7093 6.06008 3.49149 7.3513 4.71754 8.19752C3.85687 8.53646 3.06385 9.00453 2.3764 9.5902C0.893221 10.8514 0.0541982 12.5162 6.76771e-05 14.2939C-0.000654708 14.3186 0.00441219 14.343 0.0149696 14.366C0.0255269 14.3889 0.0413613 14.4097 0.0615396 14.4274C0.0817179 14.445 0.105832 14.459 0.132461 14.4685C0.15909 14.4781 0.187695 14.483 0.21659 14.483H1.73495C1.85133 14.483 1.94877 14.4046 1.95147 14.3055C2.0029 12.9681 2.63893 11.7161 3.75672 10.7661C4.55244 10.0882 5.52679 9.61786 6.59046 9.3896C6.69331 9.36423 6.76367 9.27892 6.75014 9.18669ZM18.943 8.57797C18.943 6.05547 16.564 4.00565 13.6139 3.96645C10.6151 3.92725 8.11694 6.02319 8.11694 8.57797C8.11694 10.026 8.90183 11.3172 10.1252 12.1634C9.25559 12.5068 8.46397 12.9783 7.78674 13.5561C6.30357 14.8174 5.46454 16.4821 5.41041 18.2575C5.40969 18.2822 5.41476 18.3066 5.42531 18.3296C5.43587 18.3525 5.45171 18.3734 5.47188 18.391C5.49206 18.4086 5.51618 18.4226 5.54281 18.4321C5.56943 18.4417 5.59804 18.4466 5.62693 18.4466H7.14259C7.25897 18.4466 7.3564 18.3682 7.35911 18.2691C7.41053 16.9317 8.04657 15.6797 9.16436 14.7297C10.3309 13.736 11.879 13.1895 13.53 13.1895C16.518 13.1895 18.943 11.1258 18.943 8.57797ZM15.9794 10.6647C15.3244 11.2227 14.4556 11.5293 13.53 11.5293C12.6044 11.5293 11.7356 11.2227 11.0806 10.6647C10.7537 10.3877 10.4955 10.0576 10.3211 9.69402C10.1468 9.33043 10.0599 8.94072 10.0656 8.54799C10.0738 7.7917 10.4283 7.06078 11.0481 6.51892C11.6977 5.95171 12.5665 5.63582 13.4948 5.62659C14.4123 5.61968 15.3028 5.92404 15.9577 6.4705C16.629 7.0308 16.997 7.78017 16.997 8.57797C16.9943 9.36654 16.6344 10.1067 15.9794 10.6647Z" fill="white"/>
</svg>
