<svg width="28" height="29" viewBox="0 0 28 29" fill="none" xmlns="http://www.w3.org/2000/svg">
<path d="M13.9962 7.0601C10.0211 7.0601 6.81302 10.3828 6.81302 14.5C6.81302 18.6172 10.0211 21.9399 13.9962 21.9399C17.9713 21.9399 21.1795 18.6172 21.1795 14.5C21.1795 10.3828 17.9713 7.0601 13.9962 7.0601ZM13.9962 19.3354C11.4255 19.3354 9.32767 17.1625 9.32767 14.5C9.32767 11.8375 11.4255 9.66461 13.9962 9.66461C16.5669 9.66461 18.6648 11.8375 18.6648 14.5C18.6648 17.1625 16.5669 19.3354 13.9962 19.3354ZM21.4736 5.02147C20.5455 5.02147 19.796 5.79775 19.796 6.75902C19.796 7.72029 20.5455 8.49657 21.4736 8.49657C22.4018 8.49657 23.1513 7.72392 23.1513 6.75902C23.1515 6.53076 23.1083 6.30469 23.0241 6.09375C22.9399 5.88281 22.8163 5.69115 22.6605 5.52975C22.5047 5.36834 22.3196 5.24037 22.116 5.15315C21.9123 5.06593 21.694 5.02118 21.4736 5.02147ZM27.9984 14.5C27.9984 12.4976 28.0159 10.5134 27.9074 8.51471C27.7988 6.19314 27.2875 4.13275 25.6484 2.4351C24.0058 0.733824 22.02 0.207844 19.7785 0.0953926C17.8453 -0.0170583 15.9295 0.00107896 13.9997 0.00107896C12.0665 0.00107896 10.1507 -0.0170583 8.22094 0.0953926C5.97947 0.207844 3.99016 0.737451 2.35109 2.4351C0.708507 4.13637 0.200673 6.19314 0.0921015 8.51471C-0.0164698 10.5171 0.00104174 12.5013 0.00104174 14.5C0.00104174 16.4987 -0.0164698 18.4866 0.0921015 20.4853C0.200673 22.8069 0.712009 24.8673 2.35109 26.5649C3.99367 28.2662 5.97947 28.7922 8.22094 28.9046C10.1542 29.0171 12.07 28.9989 13.9997 28.9989C15.933 28.9989 17.8488 29.0171 19.7785 28.9046C22.02 28.7922 24.0093 28.2625 25.6484 26.5649C27.291 24.8636 27.7988 22.8069 27.9074 20.4853C28.0195 18.4866 27.9984 16.5024 27.9984 14.5ZM24.9164 23.0535C24.6607 23.7137 24.3525 24.2071 23.8587 24.7149C23.3649 25.2264 22.8921 25.5456 22.2547 25.8104C20.4125 26.5685 16.0381 26.398 13.9962 26.398C11.9544 26.398 7.57652 26.5685 5.73431 25.814C5.09689 25.5492 4.62058 25.23 4.13025 24.7185C3.63643 24.2071 3.32823 23.7174 3.07256 23.0572C2.34408 21.1455 2.50869 16.6148 2.50869 14.5C2.50869 12.3852 2.34408 7.85088 3.07256 5.94284C3.32823 5.28265 3.63643 4.78931 4.13025 4.28147C4.62408 3.77363 5.09689 3.45078 5.73431 3.18598C7.57652 2.43147 11.9544 2.60196 13.9962 2.60196C16.0381 2.60196 20.416 2.43147 22.2582 3.18598C22.8956 3.45078 23.3719 3.77 23.8622 4.28147C24.356 4.79294 24.6642 5.28265 24.9199 5.94284C25.6484 7.85088 25.4838 12.3852 25.4838 14.5C25.4838 16.6148 25.6484 21.1455 24.9164 23.0535Z" fill="black"/>
</svg>
