<svg width="21" height="22" viewBox="0 0 21 22" fill="none" xmlns="http://www.w3.org/2000/svg">
<path d="M10.5 10.7246C13.814 10.7246 16.5 8.32412 16.5 5.36229C16.5 2.40046 13.814 0 10.5 0C7.18593 0 4.5 2.40046 4.5 5.36229C4.5 8.32412 7.18593 10.7246 10.5 10.7246ZM14.7 12.0652H13.9172C12.8765 12.4925 11.7187 12.7354 10.5 12.7354C9.28124 12.7354 8.12812 12.4925 7.08281 12.0652H6.29999C2.82187 12.0652 0 14.5871 0 17.6956V19.4383C0 20.5485 1.00781 21.4492 2.25 21.4492H18.75C19.9922 21.4492 21 20.5485 21 19.4383V17.6956C21 14.5871 18.1781 12.0652 14.7 12.0652Z" fill="#F5F5F5"/>
</svg>
