<svg width="27" height="26" viewBox="0 0 27 26" fill="none" xmlns="http://www.w3.org/2000/svg">
<path d="M24.75 5.95831V20.0416C24.75 20.475 24.5812 20.8541 24.2437 21.1791C23.9062 21.5041 23.5125 21.6666 23.0625 21.6666H3.9375C3.4875 21.6666 3.09375 21.5041 2.75625 21.1791C2.41875 20.8541 2.25 20.475 2.25 20.0416V5.95831C2.25 5.52498 2.41875 5.14581 2.75625 4.82081C3.09375 4.49581 3.4875 4.33331 3.9375 4.33331H23.0625C23.5125 4.33331 23.9062 4.49581 24.2437 4.82081C24.5812 5.14581 24.75 5.52498 24.75 5.95831ZM3.9375 8.9104H23.0625V5.95831H3.9375V8.9104ZM3.9375 12.4041V20.0416H23.0625V12.4041H3.9375ZM3.9375 20.0416V5.95831V20.0416Z" fill="black"/>
</svg>
