<svg width="334" height="198" viewBox="0 0 334 198" fill="none" xmlns="http://www.w3.org/2000/svg">
<g clip-path="url(#clip0_6_11)">
<path d="M172.417 5.65178C173.931 5.65178 175.159 4.38658 175.159 2.82589C175.159 1.26519 173.931 0 172.417 0C170.903 0 169.675 1.26519 169.675 2.82589C169.675 4.38658 170.903 5.65178 172.417 5.65178Z" fill="#F2F2F2"/>
<path d="M172.417 16.9141C173.931 16.9141 175.159 15.649 175.159 14.0883C175.159 12.5276 173.931 11.2624 172.417 11.2624C170.903 11.2624 169.675 12.5276 169.675 14.0883C169.675 15.649 170.903 16.9141 172.417 16.9141Z" fill="#F2F2F2"/>
<path d="M183.864 5.65178C185.378 5.65178 186.605 4.38658 186.605 2.82589C186.605 1.26519 185.378 0 183.864 0C182.35 0 181.122 1.26519 181.122 2.82589C181.122 4.38658 182.35 5.65178 183.864 5.65178Z" fill="#F2F2F2"/>
<path d="M183.864 16.9141C185.378 16.9141 186.605 15.649 186.605 14.0883C186.605 12.5276 185.378 11.2624 183.864 11.2624C182.35 11.2624 181.122 12.5276 181.122 14.0883C181.122 15.649 182.35 16.9141 183.864 16.9141Z" fill="#F2F2F2"/>
<path d="M195.31 5.65178C196.825 5.65178 198.052 4.38658 198.052 2.82589C198.052 1.26519 196.825 0 195.31 0C193.796 0 192.569 1.26519 192.569 2.82589C192.569 4.38658 193.796 5.65178 195.31 5.65178Z" fill="#F2F2F2"/>
<path d="M195.31 16.9141C196.825 16.9141 198.052 15.649 198.052 14.0883C198.052 12.5276 196.825 11.2624 195.31 11.2624C193.796 11.2624 192.569 12.5276 192.569 14.0883C192.569 15.649 193.796 16.9141 195.31 16.9141Z" fill="#F2F2F2"/>
<path d="M195.31 28.1765C196.825 28.1765 198.052 26.9113 198.052 25.3506C198.052 23.7899 196.825 22.5247 195.31 22.5247C193.796 22.5247 192.569 23.7899 192.569 25.3506C192.569 26.9113 193.796 28.1765 195.31 28.1765Z" fill="#F2F2F2"/>
<path d="M195.31 39.4389C196.825 39.4389 198.052 38.1737 198.052 36.613C198.052 35.0523 196.825 33.7871 195.31 33.7871C193.796 33.7871 192.569 35.0523 192.569 36.613C192.569 38.1737 193.796 39.4389 195.31 39.4389Z" fill="#F2F2F2"/>
<path d="M206.757 5.65178C208.271 5.65178 209.499 4.38658 209.499 2.82589C209.499 1.26519 208.271 0 206.757 0C205.243 0 204.015 1.26519 204.015 2.82589C204.015 4.38658 205.243 5.65178 206.757 5.65178Z" fill="#F2F2F2"/>
<path d="M206.757 16.9141C208.271 16.9141 209.499 15.649 209.499 14.0883C209.499 12.5276 208.271 11.2624 206.757 11.2624C205.243 11.2624 204.015 12.5276 204.015 14.0883C204.015 15.649 205.243 16.9141 206.757 16.9141Z" fill="#F2F2F2"/>
<path d="M206.757 28.1765C208.271 28.1765 209.499 26.9113 209.499 25.3506C209.499 23.7899 208.271 22.5247 206.757 22.5247C205.243 22.5247 204.015 23.7899 204.015 25.3506C204.015 26.9113 205.243 28.1765 206.757 28.1765Z" fill="#F2F2F2"/>
<path d="M206.757 39.4389C208.271 39.4389 209.499 38.1737 209.499 36.613C209.499 35.0523 208.271 33.7871 206.757 33.7871C205.243 33.7871 204.015 35.0523 204.015 36.613C204.015 38.1737 205.243 39.4389 206.757 39.4389Z" fill="#F2F2F2"/>
<path d="M218.204 5.65178C219.718 5.65178 220.945 4.38658 220.945 2.82589C220.945 1.26519 219.718 0 218.204 0C216.69 0 215.462 1.26519 215.462 2.82589C215.462 4.38658 216.69 5.65178 218.204 5.65178Z" fill="#F2F2F2"/>
<path d="M218.204 16.9141C219.718 16.9141 220.945 15.649 220.945 14.0883C220.945 12.5276 219.718 11.2624 218.204 11.2624C216.69 11.2624 215.462 12.5276 215.462 14.0883C215.462 15.649 216.69 16.9141 218.204 16.9141Z" fill="#F2F2F2"/>
<path d="M229.65 5.65178C231.165 5.65178 232.392 4.38658 232.392 2.82589C232.392 1.26519 231.165 0 229.65 0C228.136 0 226.909 1.26519 226.909 2.82589C226.909 4.38658 228.136 5.65178 229.65 5.65178Z" fill="#F2F2F2"/>
<path d="M229.65 16.9141C231.165 16.9141 232.392 15.649 232.392 14.0883C232.392 12.5276 231.165 11.2624 229.65 11.2624C228.136 11.2624 226.909 12.5276 226.909 14.0883C226.909 15.649 228.136 16.9141 229.65 16.9141Z" fill="#F2F2F2"/>
<path d="M313.348 149.122H292.994C292.994 149.725 272.017 150.215 272.017 150.215C271.688 150.47 271.388 150.764 271.123 151.089C270.326 152.068 269.89 153.306 269.893 154.585V155.459C269.894 156.907 270.452 158.296 271.446 159.32C272.439 160.345 273.787 160.92 275.192 160.921H313.348C314.753 160.92 316.1 160.344 317.094 159.32C318.087 158.296 318.646 156.907 318.647 155.459V154.585C318.645 153.137 318.086 151.748 317.093 150.724C316.1 149.701 314.753 149.124 313.348 149.122Z" fill="#3F3D56"/>
<path d="M297.236 160.704H291.724V197.41H297.236V160.704Z" fill="#3F3D56"/>
<path d="M312.922 197.21C312.922 197.824 304.57 197.448 294.268 197.448C283.966 197.448 275.614 197.824 275.614 197.21C275.614 196.597 283.966 191.729 294.268 191.729C304.57 191.729 312.922 196.597 312.922 197.21Z" fill="#3F3D56"/>
<path d="M266.707 192.383L261.51 192.382L259.037 171.718L266.708 171.719L266.707 192.383Z" fill="#FFB8B8"/>
<path d="M257.797 190.852H267.821V197.357H251.486C251.486 195.632 252.151 193.977 253.334 192.757C254.518 191.537 256.123 190.852 257.797 190.852Z" fill="#2F2E41"/>
<path d="M258.594 189.392L253.635 187.788L257.277 167.309L264.597 169.677L258.594 189.392Z" fill="#FFB8B8"/>
<path d="M250.537 185.182L260.101 188.276L258.211 194.483L242.626 189.441C242.874 188.626 243.275 187.869 243.807 187.214C244.339 186.559 244.991 186.018 245.726 185.623C246.46 185.227 247.263 184.985 248.089 184.909C248.914 184.834 249.746 184.926 250.537 185.182Z" fill="#2F2E41"/>
<path d="M299.428 145.54C299.308 144.499 299.092 143.472 298.784 142.473L297.813 141.214L295.286 137.946L295.176 137.95C294.989 137.959 294.213 138.003 293.014 138.099H293.001C292.259 138.16 291.352 138.239 290.322 138.339C290.05 138.37 289.766 138.396 289.474 138.426V142.988H294.773C295.031 142.989 295.279 143.086 295.473 143.261C295.666 143.436 295.791 143.678 295.825 143.941C295.829 143.989 295.833 144.033 295.833 144.081C295.833 144.371 295.721 144.648 295.523 144.853C295.324 145.058 295.054 145.173 294.773 145.173H263.994C263.602 145.442 263.226 145.734 262.867 146.047C261.782 146.912 261.001 148.118 260.641 149.482C258.843 157.627 255.566 172.817 254.6 177.278C254.529 177.614 254.545 177.963 254.646 178.291C254.746 178.619 254.927 178.915 255.172 179.148C255.352 179.322 255.564 179.457 255.795 179.546L259.619 181.023C259.776 181.083 259.94 181.123 260.107 181.141C260.128 181.141 260.145 181.145 260.166 181.145C260.206 181.149 260.245 181.151 260.285 181.15C260.671 181.148 261.049 181.026 261.367 180.8C261.685 180.574 261.93 180.254 262.07 179.883L265.088 171.72L269.739 159.135L271.579 154.158C273.711 154.673 291.602 158.755 297.592 152.178C298.183 151.53 298.65 150.772 298.966 149.945C299.47 148.539 299.629 147.025 299.428 145.54Z" fill="#2F2E41"/>
<path d="M304.617 146.729C304.524 146.34 304.418 145.938 304.295 145.532L300.797 141.005L300.687 141.009C300.467 141.022 299.42 141.079 297.813 141.214C295.99 141.372 293.442 141.625 290.58 142.023C290.496 142.031 290.407 142.045 290.322 142.058C290.042 142.097 289.758 142.136 289.474 142.18V142.988H294.773C295.031 142.989 295.279 143.086 295.473 143.261C295.666 143.436 295.791 143.678 295.825 143.941C295.829 143.989 295.833 144.033 295.833 144.081C295.833 144.371 295.721 144.648 295.522 144.853C295.324 145.058 295.054 145.173 294.773 145.173H276.043C275.225 145.449 274.436 145.737 273.682 146.047C269.722 147.664 266.758 149.783 266.152 152.541C265.949 153.467 265.724 154.485 265.487 155.569C264.605 159.598 263.532 164.531 262.561 169.015V169.019C262.362 169.946 262.163 170.846 261.972 171.72C261.162 175.478 260.476 178.663 260.111 180.337C260.102 180.385 260.094 180.429 260.085 180.477V180.486C260.043 180.824 260.084 181.168 260.204 181.486L260.208 181.491V181.495C260.325 181.8 260.515 182.069 260.76 182.277C260.923 182.416 261.108 182.527 261.307 182.605L265.131 184.082C265.343 184.164 265.569 184.207 265.796 184.209C266.115 184.209 266.428 184.127 266.708 183.968C267.108 183.744 267.418 183.38 267.581 182.941L275.814 160.673L277.09 157.216C279.223 157.732 297.113 161.809 303.104 155.237C304.287 153.917 304.963 152.197 305.003 150.4C305.045 149.163 304.915 147.927 304.617 146.729Z" fill="#2F2E41"/>
<path d="M304.147 108.179C304.079 108.096 304.007 108.013 303.931 107.934C302.801 106.711 301.407 105.78 299.862 105.219C298.316 104.657 296.664 104.481 295.04 104.705C293.624 104.897 292.22 105.181 290.839 105.557C289.055 106.03 287.421 106.974 286.099 108.297C285.07 109.326 284.259 110.564 283.718 111.933C283.177 113.302 282.918 114.772 282.958 116.25C282.975 116.848 282.979 117.46 282.97 118.081C282.97 118.369 282.966 118.662 282.962 118.955H287.142C287.323 118.954 287.504 118.976 287.68 119.02C288.191 119.146 288.645 119.445 288.97 119.869C289.295 120.293 289.473 120.817 289.474 121.358V141.686C289.758 141.769 290.042 141.852 290.322 141.94C290.411 141.97 290.496 141.996 290.58 142.023C290.678 142.053 290.775 142.084 290.869 142.114C291.729 142.39 292.57 142.681 293.391 142.988H294.773C295.031 142.989 295.279 143.086 295.473 143.261C295.666 143.436 295.791 143.678 295.825 143.941C296.113 144.059 296.393 144.177 296.668 144.295C297.647 144.715 298.576 145.134 299.428 145.54C300.577 146.082 301.599 146.598 302.455 147.048C302.724 147.189 303.022 147.264 303.324 147.266C303.721 147.265 304.107 147.133 304.427 146.891C304.493 146.84 304.556 146.786 304.617 146.729C304.844 146.51 305.016 146.237 305.117 145.934C305.218 145.631 305.246 145.307 305.198 144.99C304.76 141.557 304.633 138.09 304.817 134.633C304.935 131.728 305.19 128.747 305.52 125.868C305.698 124.308 305.898 122.778 306.105 121.306C306.305 119.899 306.517 118.548 306.724 117.272C306.997 115.654 306.906 113.993 306.459 112.417C306.013 110.841 305.221 109.391 304.147 108.179Z" fill="#6C63FF"/>
<path d="M286.769 108.537C286.551 108.441 286.328 108.361 286.099 108.297C284.969 107.983 283.768 108.099 282.714 108.623C281.66 109.147 280.824 110.044 280.359 111.15L277.446 118.081L277.082 118.955H287.142C287.323 118.954 287.504 118.976 287.68 119.02L288.02 118.212L289.308 115.144C289.82 113.921 289.84 112.538 289.364 111.299C288.888 110.061 287.955 109.067 286.769 108.537Z" fill="#6C63FF"/>
<path d="M295.814 101.293C301.565 101.293 306.227 96.4875 306.227 90.56C306.227 84.6326 301.565 79.8274 295.814 79.8274C290.064 79.8274 285.402 84.6326 285.402 90.56C285.402 96.4875 290.064 101.293 295.814 101.293Z" fill="#FFB8B8"/>
<path d="M306.105 121.306L300.162 121.472L299.729 125.776L299.632 126.772L290.322 131.081L289.474 131.474V139.134L290.322 138.885L293.001 138.099H293.014L304.817 134.633L304.952 134.594C305.906 134.31 306.745 133.717 307.346 132.902C307.946 132.087 308.275 131.095 308.285 130.071L308.314 124.989L308.34 121.244L306.105 121.306Z" fill="#FFB8B8"/>
<path d="M308.039 112.793C307.999 112.135 307.835 111.49 307.554 110.897C307.273 110.304 306.881 109.774 306.402 109.336C305.433 108.453 304.164 108.003 302.873 108.085C301.582 108.167 300.376 108.773 299.519 109.772C298.662 110.771 298.225 112.079 298.305 113.409L298.953 124.316C298.971 124.603 299.049 124.883 299.183 125.135C299.318 125.387 299.504 125.606 299.729 125.776C300.088 126.051 300.529 126.186 300.975 126.156L305.52 125.868L306.898 125.78C307.149 125.768 307.395 125.703 307.621 125.589C307.847 125.476 308.048 125.316 308.212 125.12C308.249 125.079 308.283 125.035 308.314 124.989C308.584 124.618 308.716 124.159 308.687 123.696L308.039 112.793Z" fill="#6C63FF"/>
<path d="M290.869 142.115H290.322V142.058C290.042 142.097 289.758 142.136 289.474 142.18V142.988H293.391C292.569 142.683 291.728 142.391 290.869 142.115ZM290.869 142.115H290.322V142.058C290.042 142.097 289.758 142.136 289.474 142.18V142.988H293.391C292.569 142.683 291.728 142.391 290.869 142.115ZM294.773 142.115H290.322V121.358C290.32 120.647 290.095 119.957 289.68 119.389C289.265 118.822 288.682 118.409 288.02 118.212C287.735 118.123 287.439 118.079 287.142 118.081H249.41C248.567 118.082 247.759 118.427 247.163 119.042C246.567 119.656 246.232 120.489 246.231 121.358V142.77C246.231 143.639 246.566 144.473 247.162 145.087C247.759 145.702 248.567 146.047 249.41 146.047H294.773C295.243 146.046 295.696 145.867 296.045 145.544C296.395 145.221 296.617 144.776 296.668 144.295C296.677 144.224 296.681 144.152 296.681 144.081C296.68 143.56 296.479 143.06 296.121 142.691C295.764 142.323 295.279 142.115 294.773 142.115H294.773ZM295.833 144.081C295.833 144.371 295.721 144.648 295.522 144.853C295.324 145.058 295.054 145.173 294.773 145.173H249.41C248.792 145.173 248.199 144.92 247.762 144.469C247.325 144.018 247.079 143.407 247.079 142.77V121.358C247.079 120.721 247.325 120.11 247.762 119.659C248.199 119.208 248.792 118.955 249.41 118.955H287.142C287.323 118.954 287.504 118.976 287.68 119.02C288.191 119.146 288.645 119.445 288.97 119.869C289.295 120.293 289.473 120.817 289.474 121.358V142.988H294.773C295.031 142.989 295.279 143.086 295.473 143.261C295.666 143.436 295.791 143.678 295.825 143.941C295.829 143.989 295.833 144.033 295.833 144.081H295.833ZM290.869 142.115H290.322V142.058C290.042 142.097 289.758 142.136 289.474 142.18V142.988H293.391C292.569 142.683 291.728 142.391 290.869 142.115Z" fill="#3F3D56"/>
<path d="M268.275 134.687C269.68 134.687 270.819 133.513 270.819 132.065C270.819 130.617 269.68 129.443 268.275 129.443C266.87 129.443 265.731 130.617 265.731 132.065C265.731 133.513 266.87 134.687 268.275 134.687Z" fill="#6C63FF"/>
<path d="M293.591 86.3026C291.173 88.5296 287.93 90.92 284.968 89.2884C283.024 88.2171 282.158 85.8677 282.612 83.6437C283.429 79.6444 286.783 77.4835 290.031 75.7367C294.253 73.4658 298.912 71.4855 303.64 72.0758C308.368 72.6662 312.987 76.6928 312.763 81.5961C312.584 85.5392 309.46 89.2177 310.449 93.0313C311.444 96.8694 315.964 98.3556 319.814 98.5509C323.663 98.7461 327.901 98.4078 330.955 100.832C334.851 103.924 334.788 110.389 332.015 114.574C329.242 118.759 324.558 121.114 319.958 122.904C313.864 125.276 307.165 126.99 300.874 125.246C294.582 123.502 289.075 117.281 289.998 110.634C290.387 107.826 291.82 105.306 293.203 102.854C294.587 100.402 295.978 97.8448 296.268 95.0243C296.51 92.6739 295.786 90.0793 294.104 88.5652C293.799 88.3016 293.584 87.9452 293.488 87.5474C293.393 87.1496 293.422 86.7308 293.571 86.3511L293.591 86.3026Z" fill="#2F2E41"/>
<path d="M0.504669 198H328.343C328.477 198 328.606 197.945 328.7 197.848C328.795 197.75 328.848 197.618 328.848 197.48C328.848 197.342 328.795 197.209 328.7 197.112C328.606 197.014 328.477 196.959 328.343 196.959H0.504669C0.438255 196.959 0.372459 196.973 0.311046 196.999C0.249632 197.025 0.193815 197.063 0.146785 197.111C0.099756 197.16 0.0624409 197.217 0.0369811 197.28C0.0115213 197.344 -0.00158691 197.411 -0.00158691 197.48C-0.00158691 197.548 0.0115213 197.616 0.0369811 197.679C0.0624409 197.742 0.099756 197.8 0.146785 197.848C0.193815 197.897 0.249632 197.935 0.311046 197.961C0.372459 197.987 0.438255 198 0.504669 198Z" fill="#3F3D56"/>
<path d="M17.1403 154.585V155.459C17.1415 156.907 17.7003 158.296 18.6938 159.32C19.6874 160.344 21.0346 160.92 22.4397 160.921H60.5953C62.0006 160.92 63.3482 160.345 64.3419 159.32C65.3356 158.296 65.8941 156.907 65.8947 155.459V154.585C65.8973 153.306 65.4618 152.068 64.665 151.089C64.3999 150.764 64.0998 150.47 63.7706 150.215C63.7706 150.215 42.7935 149.725 42.7935 149.122H22.4397C21.0348 149.124 19.688 149.701 18.6946 150.724C17.7012 151.748 17.1423 153.137 17.1403 154.585Z" fill="#3F3D56"/>
<path d="M38.5519 197.41H44.0632L44.0632 160.704H38.5519L38.5519 197.41Z" fill="#3F3D56"/>
<path d="M22.8657 197.21C22.8657 197.824 31.2173 197.448 41.5196 197.448C51.8218 197.448 60.1734 197.824 60.1734 197.21C60.1734 196.597 51.8218 191.729 41.5196 191.729C31.2173 191.729 22.8657 196.597 22.8657 197.21Z" fill="#3F3D56"/>
<path d="M69.3287 192.715H74.5263L76.9988 172.051L69.3278 172.052L69.3287 192.715Z" fill="#A0616A"/>
<path d="M84.5503 197.689L68.2152 197.69L68.2149 191.185L78.2387 191.184C79.9126 191.184 81.5179 191.87 82.7016 193.089C83.8852 194.309 84.5502 195.964 84.5503 197.689L84.5503 197.689Z" fill="#2F2E41"/>
<path d="M77.4422 189.725L82.4012 188.121L78.7586 167.642L71.4395 170.01L77.4422 189.725Z" fill="#A0616A"/>
<path d="M93.4103 189.774L77.8246 194.815L75.9349 188.609L85.4988 185.515C87.0959 184.999 88.8266 185.157 90.3103 185.956C91.794 186.754 92.9091 188.128 93.4103 189.774L93.4103 189.774Z" fill="#2F2E41"/>
<path d="M73.965 180.215L64.4569 154.489C62.3238 155.006 44.4352 159.086 38.4438 152.51C36.3905 150.257 35.99 146.992 37.2535 142.806L40.75 138.277L40.8587 138.283C42.1808 138.355 73.2635 140.15 75.3942 149.814C77.1908 157.962 80.4717 173.151 81.4344 177.613C81.532 178.075 81.4652 178.558 81.2462 178.974C81.0273 179.39 80.6707 179.71 80.2414 179.878L76.4177 181.356C76.2046 181.438 75.9789 181.481 75.7512 181.481C75.3642 181.481 74.9862 181.36 74.6673 181.134C74.3484 180.908 74.1035 180.587 73.965 180.215Z" fill="#2F2E41"/>
<path d="M68.4536 183.273L58.9456 157.548C56.8124 158.064 38.9238 162.144 32.9324 155.569C30.8791 153.316 30.4787 150.051 31.7421 145.865L35.2387 141.336L35.3474 141.342C36.6694 141.414 67.7522 143.209 69.8829 152.873C71.6794 161.02 74.9604 176.21 75.923 180.672C76.0206 181.134 75.9539 181.617 75.7349 182.033C75.5159 182.448 75.1593 182.769 74.7301 182.937L70.9063 184.415C70.6933 184.497 70.4675 184.54 70.2399 184.54C69.8528 184.54 69.4749 184.418 69.156 184.192C68.8371 183.966 68.5922 183.646 68.4536 183.273Z" fill="#2F2E41"/>
<path d="M59.9011 133.363C58.4919 133.362 57.107 132.985 55.8819 132.267C54.6569 131.549 53.6337 130.515 52.9124 129.268L49.8928 123.995L57.07 119.952L60.1175 124.259L80.7951 122.013C80.8958 121.825 81.009 121.645 81.1339 121.474C81.5307 120.936 82.033 120.49 82.6081 120.165C83.1832 119.84 83.8182 119.644 84.4718 119.589C85.1283 119.531 85.7893 119.618 86.4103 119.845C87.0313 120.072 87.598 120.434 88.0723 120.905C88.8327 121.657 89.3244 122.651 89.4675 123.727C89.6106 124.803 89.3968 125.897 88.8608 126.832C88.5254 127.415 88.0744 127.917 87.5373 128.308C87.0003 128.698 86.3892 128.967 85.7443 129.097C85.0993 129.227 84.435 129.215 83.7948 129.062C83.1546 128.909 82.5531 128.618 82.0295 128.209C81.9082 128.113 81.7917 128.011 81.6807 127.903L61.876 133.108C61.2306 133.277 60.5671 133.363 59.9011 133.363Z" fill="#A0616A"/>
<path d="M31.6077 147.223C31.3216 147.011 31.0981 146.721 30.962 146.385C30.8259 146.05 30.7826 145.682 30.8367 145.323C32.0163 137.308 30.6591 125.825 29.3127 117.604C29.0371 115.936 29.1444 114.225 29.6259 112.607C30.1073 110.99 30.9497 109.511 32.0855 108.289C33.2212 107.067 34.6188 106.137 36.1662 105.572C37.7137 105.007 39.3679 104.823 40.9965 105.036C42.4135 105.229 43.8171 105.514 45.1991 105.89C47.4946 106.486 49.5252 107.869 50.9569 109.812C52.3886 111.755 53.1362 114.143 53.0769 116.582C52.8756 124.515 54.4384 134.413 55.1197 138.3C55.1662 138.567 55.1588 138.841 55.098 139.105C55.0371 139.369 54.9242 139.617 54.7662 139.834C54.6113 140.049 54.4145 140.228 54.1885 140.36C53.9625 140.491 53.7123 140.573 53.4539 140.599C45.9041 141.393 37.7625 145.188 33.5814 147.379C33.3127 147.522 33.0149 147.597 32.7125 147.598C32.315 147.597 31.9282 147.466 31.6077 147.223Z" fill="#CCCCCC"/>
<path d="M51.9874 126.549C51.754 126.455 51.5412 126.313 51.3612 126.134C51.1812 125.954 51.0376 125.739 50.9387 125.501L46.7282 115.476C46.4733 114.87 46.3367 114.219 46.3262 113.559C46.3156 112.899 46.4315 112.243 46.667 111.629C46.9025 111.015 47.2531 110.454 47.6988 109.98C48.1444 109.506 48.6764 109.127 49.2643 108.865C49.8521 108.602 50.4844 108.462 51.1249 108.452C51.7654 108.441 52.4016 108.561 52.9971 108.805C53.5926 109.048 54.1358 109.41 54.5956 109.869C55.0553 110.329 55.4227 110.878 55.6766 111.484L59.8872 121.509C60.0875 121.988 60.0954 122.529 59.9093 123.014C59.7232 123.498 59.3581 123.887 58.8943 124.095L53.4474 126.525C53.2177 126.629 52.9703 126.684 52.7197 126.688C52.4691 126.692 52.2202 126.645 51.9874 126.549H51.9874Z" fill="#CCCCCC"/>
<path d="M40.2216 101.626C45.9724 101.626 50.6343 96.8203 50.6343 90.8929C50.6343 84.9654 45.9724 80.1602 40.2216 80.1602C34.4709 80.1602 29.809 84.9654 29.809 90.8929C29.809 96.8203 34.4709 101.626 40.2216 101.626Z" fill="#A0616A"/>
<path d="M33.929 100.428C33.7815 100.604 33.6014 100.747 33.3992 100.849C33.1971 100.952 32.9771 101.011 32.7522 101.025C32.5272 101.038 32.302 101.005 32.0898 100.927C31.8776 100.849 31.6827 100.728 31.5167 100.571C29.1949 98.6337 27.3534 96.155 26.1443 93.3395C24.7906 90.0136 24.5922 85.955 26.1328 82.8375C27.4352 80.2022 29.7731 78.5247 32.1071 77.1537C33.0019 76.5726 33.9824 76.1454 35.0103 75.8889C35.5294 75.7675 36.0675 75.7594 36.5899 75.8653C37.1122 75.9712 37.6073 76.1886 38.0432 76.5036C38.5057 76.8662 38.8637 77.3517 39.0786 77.9081C39.2936 78.4645 39.3575 79.0708 39.2633 79.6618C40.3309 78.2121 41.7702 77.0987 43.4189 76.4471C44.4305 75.9984 45.5607 75.9204 46.6214 76.2261C48.1202 76.7417 49.2297 78.3018 49.8471 79.978C50.3464 81.2612 50.5293 82.6521 50.3794 84.026C50.314 84.6821 50.1198 85.3176 49.8087 85.8939C49.4976 86.4702 49.0759 86.9752 48.5695 87.3783C47.3469 88.2478 45.7717 88.1595 44.3498 87.7747C42.928 87.3898 41.548 86.7373 40.1013 86.5554C38.6546 86.3734 37.0513 86.7679 36.1894 88.0979C35.5824 89.0345 35.4393 90.2683 35.3154 91.4444L34.6713 97.5615C34.6257 98.4366 34.4428 99.2984 34.1296 100.113C34.0766 100.227 34.0092 100.333 33.929 100.428Z" fill="#2F2E41"/>
<path d="M71.5917 166.53H54.6878C54.4138 166.531 54.1433 166.467 53.8968 166.344C53.6503 166.221 53.4343 166.041 53.2653 165.819C53.0925 165.594 52.9719 165.331 52.9126 165.051C52.8533 164.77 52.8569 164.479 52.9231 164.2C54.5043 157.374 54.5043 150.26 52.923 143.433C52.8568 143.154 52.8533 142.863 52.9126 142.583C52.9719 142.302 53.0925 142.039 53.2653 141.814C53.4343 141.592 53.6503 141.412 53.8968 141.289C54.1433 141.166 54.4138 141.103 54.6878 141.104H71.5917C72.0237 141.104 72.4413 141.263 72.7702 141.552C73.0992 141.84 73.3181 142.24 73.3881 142.679C74.4906 150.061 74.4906 157.573 73.3881 164.954C73.3181 165.394 73.0992 165.793 72.7702 166.082C72.4413 166.37 72.0237 166.529 71.5917 166.53Z" fill="#CCCCCC"/>
<path d="M58.6178 150.576V150.064C58.6182 149.716 58.7523 149.383 58.9907 149.137C59.2292 148.891 59.5524 148.753 59.8896 148.753H68.7602C69.0974 148.753 69.4207 148.891 69.6591 149.137C69.8976 149.383 70.0317 149.716 70.0321 150.064V150.576C70.0317 150.923 69.8976 151.257 69.6591 151.502C69.4207 151.748 69.0974 151.886 68.7602 151.887H59.8896C59.5524 151.886 59.2292 151.748 58.9907 151.502C58.7523 151.257 58.6182 150.923 58.6178 150.576Z" fill="white"/>
<path d="M58.6178 155.97V155.458C58.6182 155.11 58.7523 154.777 58.9907 154.531C59.2292 154.285 59.5524 154.147 59.8896 154.147H68.7602C69.0974 154.147 69.4207 154.285 69.6591 154.531C69.8976 154.777 70.0317 155.11 70.0321 155.458V155.97C70.0317 156.318 69.8976 156.651 69.6591 156.897C69.4207 157.142 69.0974 157.281 68.7602 157.281H59.8896C59.5524 157.281 59.2292 157.142 58.9907 156.897C58.7523 156.651 58.6182 156.318 58.6178 155.97Z" fill="white"/>
<path d="M64.0709 134.957C63.8953 134.728 63.7726 134.461 63.7124 134.175C63.6521 133.89 63.6557 133.595 63.7229 133.311C65.3302 126.372 65.3302 119.141 63.7228 112.203C63.6556 111.919 63.652 111.623 63.7123 111.338C63.7727 111.053 63.8953 110.786 64.0709 110.557C64.2427 110.331 64.4623 110.149 64.7128 110.024C64.9634 109.898 65.2383 109.834 65.5167 109.835H82.6983C83.1373 109.836 83.5618 109.997 83.8962 110.29C84.2305 110.584 84.4531 110.99 84.5241 111.436C85.6449 118.939 85.6449 126.575 84.5241 134.077C84.4531 134.524 84.2305 134.93 83.8962 135.223C83.5618 135.517 83.1373 135.678 82.6983 135.679H65.5167C65.2383 135.68 64.9634 135.615 64.7128 135.49C64.4623 135.365 64.2427 135.183 64.0709 134.957Z" fill="#6C63FF"/>
<path d="M79.3827 119.37H70.3316C69.9944 119.37 69.6711 119.232 69.4327 118.986C69.1942 118.74 69.0601 118.407 69.0598 118.059V117.503C69.0601 117.155 69.1942 116.822 69.4327 116.576C69.6711 116.33 69.9944 116.192 70.3316 116.192H79.3827C79.7199 116.192 80.0432 116.33 80.2816 116.576C80.5201 116.822 80.6542 117.155 80.6545 117.503V118.059C80.6542 118.407 80.5201 118.74 80.2816 118.986C80.0432 119.232 79.7199 119.37 79.3827 119.37Z" fill="white"/>
<path d="M79.3827 124.853H70.3316C69.9944 124.853 69.6711 124.715 69.4327 124.469C69.1942 124.223 69.0601 123.89 69.0598 123.542V122.986C69.0601 122.638 69.1942 122.305 69.4327 122.059C69.6711 121.813 69.9944 121.675 70.3316 121.675H79.3827C79.7199 121.675 80.0432 121.813 80.2816 122.059C80.5201 122.305 80.6542 122.638 80.6545 122.986V123.542C80.6542 123.89 80.5201 124.223 80.2816 124.469C80.0432 124.715 79.7199 124.853 79.3827 124.853Z" fill="white"/>
<path d="M56.1875 144.569C55.5684 144.347 55.0018 143.992 54.5245 143.528C54.0473 143.064 53.6701 142.503 53.4175 141.879C53.3591 141.733 53.3083 141.585 53.2652 141.433L31.0833 134.925C30.13 134.642 29.291 134.049 28.6906 133.235C28.0903 132.421 27.7606 131.429 27.7505 130.406L27.6964 121.578L35.8727 121.804L36.4055 127.106L55.3734 135.884C55.5519 135.774 55.7377 135.677 55.9294 135.593H55.9295C56.6282 135.291 57.3877 135.169 58.1424 135.238C58.8971 135.306 59.6244 135.562 60.2613 135.985C60.8983 136.408 61.4259 136.984 61.7985 137.664C62.1711 138.344 62.3775 139.107 62.4 139.888C62.4224 140.668 62.2602 141.443 61.9273 142.144C61.5944 142.846 61.1009 143.453 60.4893 143.914C59.8777 144.375 59.1664 144.675 58.417 144.79C57.6675 144.904 56.9023 144.828 56.1875 144.569Z" fill="#A0616A"/>
<path d="M27.8236 125.454C27.6571 125.261 27.5294 125.035 27.4479 124.791C27.3664 124.547 27.3327 124.288 27.3488 124.03L27.9992 113.126C28.0375 112.467 28.2015 111.822 28.482 111.228C28.7624 110.634 29.1537 110.102 29.6335 109.664C30.1134 109.227 30.6723 108.89 31.2783 108.675C31.8843 108.46 32.5255 108.37 33.1652 108.411C33.8049 108.451 34.4306 108.622 35.0064 108.912C35.5823 109.202 36.097 109.606 36.5211 110.101C36.9452 110.597 37.2704 111.173 37.4781 111.798C37.6858 112.423 37.7718 113.084 37.7314 113.744L37.0812 124.647C37.0495 125.168 36.8189 125.654 36.44 125.999C36.0611 126.344 35.5648 126.521 35.06 126.489L29.1359 126.114C28.8857 126.099 28.6408 126.033 28.4156 125.919C28.1903 125.806 27.9891 125.648 27.8236 125.454H27.8236Z" fill="#CCCCCC"/>
<path d="M123.167 66.8856H88.4031C87.3915 66.8844 86.4217 66.4696 85.7064 65.7324C84.9911 64.9951 84.5887 63.9954 84.5875 62.9527V24.0617C84.5887 23.019 84.9911 22.0194 85.7064 21.2821C86.4217 20.5448 87.3915 20.1301 88.4031 20.1289H123.167C124.179 20.1301 125.148 20.5448 125.864 21.2821C126.579 22.0194 126.981 23.019 126.983 24.0617V62.9527C126.981 63.9954 126.579 64.9951 125.864 65.7324C125.148 66.4696 124.179 66.8844 123.167 66.8856ZM88.4031 21.0029C87.6163 21.0038 86.862 21.3263 86.3056 21.8998C85.7493 22.4732 85.4363 23.2507 85.4354 24.0617V62.9527C85.4363 63.7637 85.7493 64.5412 86.3056 65.1147C86.862 65.6881 87.6163 66.0107 88.4031 66.0116H123.167C123.954 66.0107 124.708 65.6881 125.265 65.1147C125.821 64.5412 126.134 63.7637 126.135 62.9527V24.0617C126.134 23.2507 125.821 22.4732 125.265 21.8998C124.708 21.3263 123.954 21.0038 123.167 21.0029H88.4031Z" fill="#3F3D56"/>
<path d="M186.76 66.8856H151.996C150.984 66.8844 150.014 66.4696 149.299 65.7324C148.584 64.9951 148.181 63.9954 148.18 62.9527V24.0617C148.181 23.019 148.584 22.0194 149.299 21.2821C150.014 20.5448 150.984 20.1301 151.996 20.1289H186.76C187.771 20.1301 188.741 20.5448 189.456 21.2821C190.172 22.0194 190.574 23.019 190.575 24.0617V62.9527C190.574 63.9954 190.172 64.9951 189.456 65.7324C188.741 66.4696 187.771 66.8844 186.76 66.8856ZM151.996 21.0029C151.209 21.0038 150.455 21.3263 149.898 21.8998C149.342 22.4732 149.029 23.2507 149.028 24.0617V62.9527C149.029 63.7637 149.342 64.5412 149.898 65.1147C150.455 65.6881 151.209 66.0107 151.996 66.0116H186.76C187.546 66.0107 188.301 65.6881 188.857 65.1147C189.414 64.5412 189.726 63.7637 189.727 62.9527V24.0617C189.726 23.2507 189.414 22.4732 188.857 21.8998C188.301 21.3263 187.546 21.0038 186.76 21.0029H151.996Z" fill="#3F3D56"/>
<path d="M95.4047 36.2971H92.0131C91.5073 36.2965 91.0223 36.0891 90.6647 35.7205C90.307 35.3519 90.1058 34.852 90.1053 34.3307V30.8349C90.1058 30.3135 90.307 29.8137 90.6647 29.445C91.0223 29.0764 91.5073 28.869 92.0131 28.8685H95.4047C95.9105 28.869 96.3954 29.0764 96.753 29.445C97.1107 29.8137 97.3119 30.3135 97.3124 30.8349V34.3307C97.3119 34.852 97.1107 35.3519 96.753 35.7205C96.3954 36.0891 95.9105 36.2965 95.4047 36.2971Z" fill="#6C63FF"/>
<path d="M95.4047 47.2215H92.0131C91.5073 47.221 91.0223 47.0136 90.6647 46.6449C90.307 46.2763 90.1058 45.7765 90.1053 45.2551V41.7593C90.1058 41.238 90.307 40.7381 90.6647 40.3695C91.0223 40.0008 91.5073 39.7935 92.0131 39.7929H95.4047C95.9105 39.7935 96.3954 40.0008 96.753 40.3695C97.1107 40.7381 97.3119 41.238 97.3124 41.7593V45.2551C97.3119 45.7765 97.1107 46.2763 96.753 46.6449C96.3954 47.0136 95.9105 47.221 95.4047 47.2215Z" fill="#CCCCCC"/>
<path d="M120.193 34.172H104.359C104.022 34.1717 103.698 34.0334 103.46 33.7877C103.221 33.5419 103.087 33.2087 103.087 32.8611V32.3044C103.087 31.9569 103.221 31.6236 103.46 31.3779C103.698 31.1321 104.022 30.9939 104.359 30.9935H120.193C120.53 30.9939 120.854 31.1321 121.092 31.3779C121.33 31.6236 121.465 31.9569 121.465 32.3044V32.8611C121.465 33.2087 121.33 33.5419 121.092 33.7877C120.854 34.0334 120.53 34.1717 120.193 34.172Z" fill="#6C63FF"/>
<path d="M159.29 35.6117H155.898C155.392 35.6111 154.907 35.4038 154.55 35.0351C154.192 34.6665 153.991 34.1666 153.99 33.6453V30.1495C153.991 29.6281 154.192 29.1283 154.55 28.7597C154.907 28.391 155.392 28.1836 155.898 28.1831H159.29C159.795 28.1836 160.28 28.391 160.638 28.7597C160.996 29.1283 161.197 29.6281 161.197 30.1495V33.6453C161.197 34.1666 160.996 34.6665 160.638 35.0351C160.28 35.4038 159.795 35.6111 159.29 35.6117Z" fill="#CCCCCC"/>
<path d="M184.078 33.4867H168.244C167.907 33.4863 167.583 33.348 167.345 33.1023C167.106 32.8565 166.972 32.5233 166.972 32.1757V31.619C166.972 31.2715 167.106 30.9383 167.345 30.6925C167.583 30.4467 167.907 30.3085 168.244 30.3081H184.078C184.415 30.3085 184.739 30.4467 184.977 30.6925C185.215 30.9383 185.35 31.2715 185.35 31.619V32.1757C185.35 32.5233 185.215 32.8565 184.977 33.1023C184.739 33.348 184.415 33.4863 184.078 33.4867Z" fill="#CCCCCC"/>
<path d="M184.078 43.9741H154.677C154.34 43.9737 154.017 43.8355 153.778 43.5897C153.54 43.344 153.406 43.0108 153.405 42.6632V42.1065C153.406 41.759 153.54 41.4257 153.778 41.18C154.017 40.9342 154.34 40.796 154.677 40.7956H184.078C184.415 40.796 184.739 40.9342 184.977 41.18C185.215 41.4257 185.35 41.759 185.35 42.1065V42.6632C185.35 43.0108 185.215 43.344 184.977 43.5897C184.739 43.8355 184.415 43.9737 184.078 43.9741Z" fill="#6C63FF"/>
<path d="M184.078 51.4028H154.677C154.34 51.4024 154.017 51.2641 153.778 51.0184C153.54 50.7726 153.406 50.4394 153.405 50.0918V49.5351C153.406 49.1876 153.54 48.8544 153.778 48.6086C154.017 48.3628 154.34 48.2246 154.677 48.2242H184.078C184.415 48.2246 184.739 48.3628 184.977 48.6086C185.215 48.8544 185.35 49.1876 185.35 49.5351V50.0918C185.35 50.4394 185.215 50.7726 184.977 51.0184C184.739 51.2641 184.415 51.4024 184.078 51.4028Z" fill="#CCCCCC"/>
<path d="M184.078 58.8314H154.677C154.34 58.831 154.017 58.6928 153.778 58.447C153.54 58.2012 153.406 57.868 153.405 57.5205V56.9638C153.406 56.6162 153.54 56.283 153.778 56.0372C154.017 55.7915 154.34 55.6532 154.677 55.6528H184.078C184.415 55.6532 184.739 55.7915 184.977 56.0372C185.215 56.283 185.35 56.6162 185.35 56.9638V57.5205C185.35 57.868 185.215 58.2012 184.977 58.447C184.739 58.6928 184.415 58.831 184.078 58.8314Z" fill="#CCCCCC"/>
<path d="M250.352 66.8856H215.588C214.577 66.8844 213.607 66.4696 212.892 65.7324C212.176 64.9951 211.774 63.9954 211.773 62.9527V24.0617C211.774 23.019 212.176 22.0194 212.892 21.2821C213.607 20.5448 214.577 20.1301 215.588 20.1289H250.352C251.364 20.1301 252.334 20.5448 253.049 21.2821C253.764 22.0194 254.167 23.019 254.168 24.0617V62.9527C254.167 63.9954 253.764 64.9951 253.049 65.7324C252.334 66.4696 251.364 66.8844 250.352 66.8856ZM215.588 21.0029C214.802 21.0038 214.047 21.3263 213.491 21.8998C212.934 22.4732 212.622 23.2507 212.621 24.0617V62.9527C212.622 63.7637 212.934 64.5412 213.491 65.1147C214.047 65.6881 214.802 66.0107 215.588 66.0116H250.352C251.139 66.0107 251.893 65.6881 252.45 65.1147C253.006 64.5412 253.319 63.7637 253.32 62.9527V24.0617C253.319 23.2507 253.006 22.4732 252.45 21.8998C251.893 21.3263 251.139 21.0038 250.352 21.0029H215.588Z" fill="#3F3D56"/>
<path d="M247.671 33.4867H231.836C231.499 33.4863 231.176 33.348 230.937 33.1023C230.699 32.8565 230.565 32.5233 230.565 32.1757V31.619C230.565 31.2715 230.699 30.9383 230.937 30.6925C231.176 30.4467 231.499 30.3085 231.836 30.3081H247.671C248.008 30.3085 248.331 30.4467 248.57 30.6925C248.808 30.9383 248.942 31.2715 248.943 31.619V32.1757C248.942 32.5233 248.808 32.8565 248.57 33.1023C248.331 33.348 248.008 33.4863 247.671 33.4867Z" fill="#CCCCCC"/>
<path d="M247.671 43.9741H218.27C217.933 43.9737 217.609 43.8355 217.371 43.5897C217.133 43.344 216.998 43.0108 216.998 42.6632V42.1065C216.998 41.759 217.133 41.4257 217.371 41.18C217.609 40.9342 217.933 40.796 218.27 40.7956H247.671C248.008 40.796 248.331 40.9342 248.57 41.18C248.808 41.4257 248.942 41.759 248.942 42.1065V42.6632C248.942 43.0108 248.808 43.344 248.57 43.5897C248.331 43.8355 248.008 43.9737 247.671 43.9741Z" fill="#CCCCCC"/>
<path d="M247.671 51.4028H218.27C217.933 51.4024 217.609 51.2641 217.371 51.0184C217.133 50.7726 216.998 50.4394 216.998 50.0918V49.5351C216.998 49.1876 217.133 48.8544 217.371 48.6086C217.609 48.3628 217.933 48.2246 218.27 48.2242H247.671C248.008 48.2246 248.331 48.3628 248.57 48.6086C248.808 48.8544 248.942 49.1876 248.942 49.5351V50.0918C248.942 50.4394 248.808 50.7726 248.57 51.0184C248.331 51.2641 248.008 51.4024 247.671 51.4028Z" fill="#CCCCCC"/>
<path d="M247.671 58.8314H218.27C217.933 58.831 217.609 58.6928 217.371 58.447C217.133 58.2012 216.998 57.868 216.998 57.5205V56.9638C216.998 56.6162 217.133 56.283 217.371 56.0372C217.609 55.7915 217.933 55.6532 218.27 55.6528H247.671C248.008 55.6532 248.331 55.7915 248.57 56.0372C248.808 56.283 248.942 56.6162 248.942 56.9638V57.5205C248.942 57.868 248.808 58.2012 248.57 58.447C248.331 58.6928 248.008 58.831 247.671 58.8314Z" fill="#CCCCCC"/>
<path d="M120.193 45.0965H104.359C104.022 45.0961 103.698 44.9579 103.46 44.7121C103.221 44.4663 103.087 44.1331 103.087 43.7856V43.2289C103.087 42.8813 103.221 42.5481 103.46 42.3023C103.698 42.0566 104.022 41.9183 104.359 41.9179H120.193C120.53 41.9183 120.854 42.0566 121.092 42.3023C121.33 42.5481 121.465 42.8813 121.465 43.2289V43.7856C121.465 44.1331 121.33 44.4663 121.092 44.7121C120.854 44.9579 120.53 45.0961 120.193 45.0965Z" fill="#CCCCCC"/>
<path d="M95.4047 58.146H92.0131C91.5073 58.1454 91.0223 57.938 90.6647 57.5694C90.307 57.2008 90.1058 56.7009 90.1053 56.1796V52.6838C90.1058 52.1624 90.307 51.6626 90.6647 51.2939C91.0223 50.9253 91.5073 50.7179 92.0131 50.7174H95.4047C95.9105 50.7179 96.3954 50.9253 96.753 51.2939C97.1107 51.6626 97.3119 52.1624 97.3124 52.6838V56.1796C97.3119 56.7009 97.1107 57.2008 96.753 57.5694C96.3954 57.938 95.9105 58.1454 95.4047 58.146Z" fill="#CCCCCC"/>
<path d="M120.193 56.0209H104.359C104.022 56.0206 103.698 55.8823 103.46 55.6366C103.221 55.3908 103.087 55.0576 103.087 54.71V54.1533C103.087 53.8058 103.221 53.4725 103.46 53.2268C103.698 52.981 104.022 52.8428 104.359 52.8424H120.193C120.53 52.8428 120.854 52.981 121.092 53.2268C121.33 53.4725 121.465 53.8058 121.465 54.1533V54.71C121.465 55.0576 121.33 55.3908 121.092 55.6366C120.854 55.8823 120.53 56.0206 120.193 56.0209Z" fill="#CCCCCC"/>
<path d="M224.914 31.4903C224.914 31.4802 224.915 31.4705 224.915 31.4604C224.915 30.9439 224.817 30.4325 224.625 29.9554C224.433 29.4782 224.152 29.0447 223.798 28.6795C223.443 28.3143 223.023 28.0246 222.56 27.827C222.097 27.6293 221.601 27.5276 221.1 27.5276V31.4903H224.914Z" fill="#6C63FF"/>
<path d="M220.676 31.9273V27.9646C219.922 27.9643 219.186 28.194 218.559 28.6246C217.932 29.0553 217.442 29.6676 217.152 30.3845C216.863 31.1014 216.785 31.8906 216.93 32.6528C217.075 33.4149 217.435 34.1159 217.966 34.6672C218.496 35.2185 219.173 35.5956 219.912 35.7508C220.65 35.9061 221.416 35.8325 222.114 35.5395C222.812 35.2464 223.41 34.747 223.833 34.1042C224.255 33.4614 224.484 32.7039 224.49 31.9273H220.676Z" fill="#CCCCCC"/>
</g>
<defs>
<clipPath id="clip0_6_11">
<rect width="334" height="198" fill="white"/>
</clipPath>
</defs>
</svg>
