<svg width="29" height="24" viewBox="0 0 29 24" fill="none" xmlns="http://www.w3.org/2000/svg">
<path d="M14.464 23.8707C15.2647 23.8707 15.9138 23.2025 15.9138 22.3782C15.9138 21.5539 15.2647 20.8857 14.464 20.8857C13.6633 20.8857 13.0142 21.5539 13.0142 22.3782C13.0142 23.2025 13.6633 23.8707 14.464 23.8707Z" fill="white"/>
<path d="M14.4639 14.9159C12.5875 14.9159 10.7841 15.6649 9.43306 17.0054C9.15621 17.2805 8.99686 17.6575 8.99006 18.0536C8.98327 18.4496 9.12958 18.8322 9.39682 19.1172C9.66405 19.4022 10.0303 19.5662 10.4151 19.5732C10.7998 19.5802 11.1715 19.4296 11.4483 19.1545C12.2717 18.3784 13.3475 17.948 14.4639 17.948C15.5803 17.948 16.6562 18.3784 17.4795 19.1545C17.7564 19.4296 18.128 19.5802 18.5128 19.5732C18.8975 19.5662 19.2638 19.4022 19.531 19.1172C19.7983 18.8322 19.9446 18.4496 19.9378 18.0536C19.931 17.6575 19.7716 17.2805 19.4948 17.0054C18.1437 15.6649 16.3404 14.9159 14.4639 14.9159Z" fill="white"/>
<path d="M14.4639 7.45362C12.7128 7.4548 10.9799 7.8188 9.36833 8.52391C7.75679 9.22902 6.2996 10.2608 5.08358 11.5579C4.95126 11.7019 4.84779 11.8714 4.77909 12.0566C4.7104 12.2418 4.67781 12.4392 4.68319 12.6373C4.68858 12.8355 4.73183 13.0307 4.81048 13.2116C4.88913 13.3926 5.00163 13.5559 5.14157 13.6921C5.42419 13.9672 5.80139 14.1154 6.1902 14.1042C6.38272 14.0987 6.57229 14.0542 6.74809 13.9732C6.92389 13.8922 7.08248 13.7764 7.2148 13.6324C8.16151 12.6213 9.29653 11.817 10.552 11.2677C11.8075 10.7184 13.1577 10.4353 14.5219 10.4353C15.886 10.4353 17.2362 10.7184 18.4917 11.2677C19.7472 11.817 20.8822 12.6213 21.8289 13.6324C21.9632 13.7734 22.1233 13.8856 22.3 13.9624C22.4767 14.0393 22.6665 14.0793 22.8583 14.0801C23.1416 14.079 23.4184 13.9925 23.6545 13.8312C23.8906 13.6699 24.0755 13.441 24.1866 13.1726C24.2976 12.9043 24.3299 12.6084 24.2793 12.3214C24.2288 12.0344 24.0977 11.769 23.9022 11.5579C22.6794 10.2536 21.2128 9.21757 19.5907 8.51221C17.9687 7.80686 16.2247 7.44676 14.4639 7.45362Z" fill="white"/>
<path d="M28.5562 5.8567C24.7728 2.09956 19.7209 0 14.464 0C9.20709 0 4.15521 2.09956 0.371814 5.8567C0.12714 6.13677 -0.00561415 6.50171 0.00018211 6.87833C0.00597837 7.25495 0.149896 7.61538 0.403066 7.88733C0.656235 8.15927 0.999931 8.32262 1.36521 8.3446C1.73049 8.36658 2.09033 8.24557 2.37256 8.00584C5.61666 4.77784 9.9521 2.97345 14.464 2.97345C18.9759 2.97345 23.3113 4.77784 26.5554 8.00584C26.8242 8.27251 27.1825 8.4222 27.5558 8.42373C27.7511 8.42296 27.9442 8.38158 28.1236 8.30208C28.303 8.22257 28.4649 8.10658 28.5997 7.96107C28.864 7.67556 29.0078 7.29396 28.9997 6.89965C28.9915 6.50534 28.8321 6.13037 28.5562 5.8567Z" fill="white"/>
</svg>
