<svg width="17" height="25" viewBox="0 0 17 25" fill="none" xmlns="http://www.w3.org/2000/svg">
<path d="M14.0781 21.875C12.6378 21.875 11.2064 21.3542 9.78385 20.3125C8.36128 19.2708 7.08333 17.9167 5.95 16.25C4.81667 14.5833 3.89583 12.704 3.1875 10.612C2.47917 8.51997 2.125 6.41493 2.125 4.29688C2.125 3.96701 2.20174 3.68924 2.35521 3.46354C2.50868 3.23785 2.69757 3.125 2.92188 3.125H5.40104C5.56632 3.125 5.71094 3.20747 5.8349 3.3724C5.95885 3.53733 6.03854 3.75868 6.07396 4.03646L6.55208 7.31771C6.57569 7.56076 6.57274 7.78212 6.54323 7.98177C6.51372 8.18142 6.45174 8.35069 6.35729 8.48958L4.58646 11.1198C5.24757 12.7344 5.98837 14.1406 6.80885 15.3385C7.62934 16.5365 8.55903 17.5521 9.59792 18.3854L11.2802 15.8333C11.3983 15.6424 11.534 15.5078 11.6875 15.4297C11.841 15.3516 11.9944 15.3385 12.1479 15.3906L14.2552 16.0677C14.4323 16.1198 14.5799 16.25 14.6979 16.4583C14.816 16.6667 14.875 16.9097 14.875 17.1875V20.7031C14.875 21.033 14.7983 21.3108 14.6448 21.5365C14.4913 21.7622 14.3024 21.875 14.0781 21.875ZM4.05521 9.6875L5.48958 7.55208L5.08229 4.6875H3.1875C3.1875 5.36458 3.25833 6.10677 3.4 6.91406C3.54167 7.72135 3.76007 8.64583 4.05521 9.6875ZM10.5896 19.1406C11.0736 19.4705 11.599 19.7396 12.1656 19.9479C12.7323 20.1562 13.2812 20.2778 13.8125 20.3125V17.526L11.9885 16.9792L10.5896 19.1406Z" fill="black"/>
</svg>
