<svg width="18" height="19" viewBox="0 0 18 19" fill="none" xmlns="http://www.w3.org/2000/svg">
<path d="M16.9 18.75L10.325 11.901C9.825 12.3524 9.24167 12.704 8.575 12.9557C7.90833 13.2075 7.2 13.3333 6.45 13.3333C4.65 13.3333 3.125 12.6823 1.875 11.3802C0.625 10.0781 0 8.50694 0 6.66667C0 4.82639 0.625 3.25521 1.875 1.95312C3.125 0.651042 4.64167 0 6.425 0C8.19167 0 9.69583 0.651042 10.9375 1.95312C12.1792 3.25521 12.8 4.82639 12.8 6.66667C12.8 7.41319 12.6833 8.13368 12.45 8.82812C12.2167 9.52257 11.8667 10.1736 11.4 10.7812L18 17.6042L16.9 18.75ZM6.425 11.7708C7.775 11.7708 8.925 11.2717 9.875 10.2734C10.825 9.27517 11.3 8.07292 11.3 6.66667C11.3 5.26042 10.825 4.05816 9.875 3.0599C8.925 2.06163 7.775 1.5625 6.425 1.5625C5.05833 1.5625 3.89583 2.06163 2.9375 3.0599C1.97917 4.05816 1.5 5.26042 1.5 6.66667C1.5 8.07292 1.97917 9.27517 2.9375 10.2734C3.89583 11.2717 5.05833 11.7708 6.425 11.7708Z" fill="black"/>
</svg>
