<svg width="35" height="27" viewBox="0 0 35 27" fill="none" xmlns="http://www.w3.org/2000/svg">
<g clip-path="url(#clip0_25_149)">
<path d="M12 9.06071H14.6393V21.1429C14.6393 21.3 14.7678 21.4286 14.925 21.4286H17.0678C17.225 21.4286 17.3535 21.3 17.3535 21.1429V9.06071H20C20.2393 9.06071 20.3714 8.78571 20.225 8.6L16.225 3.53571C16.1982 3.50156 16.1641 3.47395 16.1251 3.45495C16.0861 3.43596 16.0433 3.42609 16 3.42609C15.9566 3.42609 15.9138 3.43596 15.8748 3.45495C15.8358 3.47395 15.8017 3.50156 15.775 3.53571L11.775 8.59643C11.6285 8.78571 11.7607 9.06071 12 9.06071ZM29.0714 20.0714H26.9285C26.7714 20.0714 26.6428 20.2 26.6428 20.3571V25.8571H5.35711V20.3571C5.35711 20.2 5.22854 20.0714 5.07139 20.0714H2.92854C2.77139 20.0714 2.64282 20.2 2.64282 20.3571V27.4286C2.64282 28.0607 3.15354 28.5714 3.78568 28.5714H28.2143C28.8464 28.5714 29.3571 28.0607 29.3571 27.4286V20.3571C29.3571 20.2 29.2285 20.0714 29.0714 20.0714Z" fill="black"/>
</g>
<defs>
<clipPath id="clip0_25_149">
<rect width="35" height="27" fill="white"/>
</clipPath>
</defs>
</svg>
