<svg width="18" height="23" viewBox="0 0 18 23" fill="none" xmlns="http://www.w3.org/2000/svg">
<path d="M2.625 19.1666C2.325 19.1666 2.0625 19.0229 1.8375 18.7354C1.6125 18.4479 1.5 18.1125 1.5 17.7291V5.27081C1.5 4.88748 1.6125 4.55206 1.8375 4.26456C2.0625 3.97706 2.325 3.83331 2.625 3.83331H15.375C15.675 3.83331 15.9375 3.97706 16.1625 4.26456C16.3875 4.55206 16.5 4.88748 16.5 5.27081V17.7291C16.5 18.1125 16.3875 18.4479 16.1625 18.7354C15.9375 19.0229 15.675 19.1666 15.375 19.1666H2.625ZM9 11.9312L2.625 6.58852V17.7291H15.375V6.58852L9 11.9312ZM9 10.4937L15.3 5.27081H2.71875L9 10.4937ZM2.625 6.58852V5.27081V17.7291V6.58852Z" fill="black"/>
</svg>
